PathFileType	4	(X/Y/Z)	Patient4_TMGait_0pt5_01_left_02.trc.trc
DataRate	CameraRate	NumFrames	NumMarkers	Units	OrigDataRate	OrigDataStartFrame	OrigNumFrames
76.086956521739	76.086956521739	5	33	mm	76.086956521739	124	       141
Frame#	Time	L.ASIS			Sacral			L.Shoulder			Chest			R.Shoulder			Neck			R.ASIS			R.Thigh.Superior			R.Thigh.Lateral			R.Thigh.Inferior			R.Patella			L.Thigh.Superior			L.Thigh.Lateral			L.Thigh.Inferior			L.Patella			L.Shank.Superior			L.Shank.Lateral			L.Shank.Inferior			R.Shank.Superior			R.Shank.Lateral			R.Shank.Inferior			R.Heel			R.Midfoot.Superior			R.Midfoot.Lateral			R.Toe			L.Heel			L.Midfoot.Lateral			L.Midfoot.Superior			L.Toe			L.Elbow			L.Wrist			R.Elbow			R.Wrist			
		X1	Y1	Z1	X2	Y2	Z2	X3	Y3	Z3	X4	Y4	Z4	X5	Y5	Z5	X6	Y6	Z6	X7	Y7	Z7	X8	Y8	Z8	X9	Y9	Z9	X10	Y10	Z10	X11	Y11	Z11	X12	Y12	Z12	X13	Y13	Z13	X14	Y14	Z14	X15	Y15	Z15	X16	Y16	Z16	X17	Y17	Z17	X18	Y18	Z18	X19	Y19	Z19	X20	Y20	Z20	X21	Y21	Z21	X22	Y22	Z22	X23	Y23	Z23	X24	Y24	Z24	X25	Y25	Z25	X26	Y26	Z26	X27	Y27	Z27	X28	Y28	Z28	X29	Y29	Z29	X30	Y30	Z30	X31	Y31	Z31	X32	Y32	Z32	X33	Y33	Z33	

124	4.136571428571	737.412218164982	958.176839490165	356.723396819347	543.563548817184	1002.546736843803	539.220674618331	692.976152359910	1433.694997545098	343.321625213319	815.937618060921	1360.943527965022	488.160329732531	755.642126474864	1433.004953445048	673.293363308417	714.765605611397	1491.632768645949	494.130684634579	781.142626909521	936.447003819591	628.244462680925	788.106803383676	726.558181669472	596.510292253164	695.912817051245	627.845612810354	664.082803790204	752.373110229205	566.005171775637	577.877853884795	736.633771717118	478.822615919739	582.438604655277	813.936983779845	768.509790511997	384.257634574977	755.692238510009	641.015109773906	315.354823132341	856.085836868496	578.887536459367	376.770928058995	880.831438256793	515.187356759853	376.992872042392	867.081852237235	444.310552179464	366.364810718603	806.719433278997	312.880670444909	314.080021086812	894.982658557077	217.208309995936	372.389002214080	699.963803989121	393.604605782997	590.934825015702	620.997423967699	298.227118480777	655.323498312734	646.312470372616	200.352581784229	590.016639171557	493.731869622132	43.638814008232	563.417057663666	666.021680380345	96.210145847003	596.659604203978	577.563544187552	36.276921427996	637.074777299844	785.730667181910	41.871087024509	624.816273175851	813.295084432461	39.099931277495	408.608542747650	890.680656054498	43.037419449676	331.743536185869	960.535827457886	119.307877311874	354.350994735712	1094.708909441256	89.482440818856	335.156119984129	566.530820600339	1100.743735893910	242.375823519482	543.273838203547	842.469027765176	233.205573905839	880.373919210072	1119.016207289158	787.032042971066	1105.927995214484	1181.071381365310	696.897130378572	
125	4.149714285714	738.630782539695	956.986851019548	355.019521171480	544.731728566619	1000.983776598525	537.433083512674	690.990998274693	1432.742227535535	341.149082700547	814.598406945719	1360.797592368256	485.844768750570	753.948798557477	1432.280580676069	671.114775662052	712.647028147415	1490.818348748323	491.961019768912	782.263271610160	935.919033826891	626.569711921610	787.574598845428	725.344047105782	595.442270128725	694.077406747426	627.336912327650	663.012699881451	749.972986926679	564.838435541414	577.109997992181	733.232521186119	477.685071474726	581.455023541970	815.759324158103	767.115542843950	382.256011591868	755.466813201868	638.930719129043	315.100476121700	856.567686117633	577.234859187978	375.506333776894	880.294512779416	512.604049766862	376.456402931740	865.862831531622	441.223560682911	366.341631421826	803.125822468671	310.579894398747	314.646617590364	889.782224191972	213.558255824819	373.172446192796	695.880997639307	392.774870531830	590.195636118292	616.341963942509	298.125175778682	655.012451412293	640.687935913229	199.918407387495	589.755924476807	487.181133319914	43.566582417381	563.500331400310	659.520508627378	96.130509918163	596.701320971312	571.029650580725	36.110879692398	637.021411901110	779.224365407566	41.690223158464	624.845101619210	804.028271727736	38.279713051346	409.503283372537	881.371223960487	40.532385793126	332.366428163111	953.717349643699	114.221762909991	355.654150156489	1087.093951709650	80.091506600075	335.857218487702	564.475428890816	1099.841409103329	240.991350029021	542.258293707060	841.327715702994	232.616014135309	880.657363907983	1118.443217240911	783.376283865659	1104.110355633725	1184.397628272147	690.867754810226	
126	4.162857142857	739.978363090704	955.870225756364	353.252602689603	545.914906585671	999.511411202961	535.459153479785	689.124446781442	1431.773864858254	338.821047341790	813.349071319786	1360.695595609039	483.421467429559	752.287081882490	1431.618747138474	668.805064362658	710.601932355319	1490.036900573065	489.615249042708	783.422892507957	935.357530110013	624.820833086871	787.120696919584	724.110290499707	594.365257017487	692.240951475798	626.859241836987	661.850690646368	747.629586161625	563.682168140813	576.270687167470	729.877882983652	476.535069319034	580.395720714612	817.523480921092	765.708898455010	380.433466555913	755.531335029213	637.087025536282	314.644140178828	857.114192276705	575.723871552634	374.417156729841	879.747534836692	510.159980870814	376.029090011826	864.761669116743	438.332746344081	366.256730203287	799.889670639970	308.449907794929	314.972365716577	884.885431125796	210.155405986591	373.894973421355	691.841881995721	391.972212669264	589.403574768725	611.692318770071	298.077043877078	654.673550364578	635.086652600481	199.518336013516	589.490382008140	480.645123981543	43.530555514486	563.606659082401	653.053786684177	96.056995431142	596.750030803518	564.530126792904	35.948576412812	636.981348890297	772.761334039230	41.471431325691	624.880665499992	795.161897130847	37.554863085350	410.153012065117	872.536962089995	38.368062813084	332.850634205752	947.151493024946	109.570778723502	356.999327599490	1079.762682773639	71.441818693555	336.771362445834	562.876100419756	1098.746519861779	239.421746636261	542.266924290651	839.921471960151	231.811652868268	880.579975587153	1117.751170279938	779.786064896351	1102.369680798506	1186.627552082618	685.149152364030	
127	4.176000000000	741.359816349124	954.891995562068	351.397776990216	547.036978864835	998.198319157930	533.307487519687	687.414341670899	1430.826603021409	336.340494735697	812.210516945880	1360.639371749609	480.890347404569	750.713367604182	1431.066405349933	666.354628505282	708.687234766981	1489.324427755504	487.088492248573	784.546063916547	934.783708923325	622.972781607810	786.732540631152	722.904701743683	593.217561499360	690.472160983841	626.416699805694	660.555478347651	745.435029238722	562.567545794460	575.304810486309	726.709501694548	475.364511382019	579.238888599328	819.160779082707	764.413174645610	378.826465432255	755.932508899397	635.599587424667	313.964471839575	857.745127713585	574.470512682680	373.512448705664	879.238222070136	507.991134538499	375.693686370601	863.828460005945	435.777313167885	366.088829922044	797.126587074675	306.621968454469	315.018274690211	880.416147828175	207.178712569362	374.521232557481	687.949552092181	391.198959965397	588.530890097366	607.117708690251	298.110898362777	654.271850094178	629.550466723019	199.174244435396	589.200546786079	474.121412574026	43.609168533881	563.734752585993	646.628604232525	96.005982604475	596.796802466307	558.060815126262	35.841784805180	636.956807324072	766.332054427529	41.204586225773	624.922009073948	786.959603324905	37.000900865166	410.590475918048	864.413686991076	36.658466058115	333.206597142266	940.974269317116	105.593875180299	358.303091221498	1072.877329954206	63.970772148675	337.792767561837	561.770820896015	1097.494355414604	237.665793042449	543.293656132618	838.303169344695	230.773898275551	880.139510678466	1116.975899006128	776.272794829286	1100.767265886386	1187.703274645179	679.759578805296	
128	4.189142857143	742.686216387615	954.111065746393	349.422345088484	548.030284553102	997.102209523741	530.982453219748	685.887552098618	1429.940317943404	333.710491530147	811.193251647719	1360.630650841523	478.249882375144	749.274769635940	1430.668677849337	663.752783349175	706.947357388207	1488.716311675584	484.379105149262	785.554433208122	934.229974465870	620.998544748017	786.398370196854	721.783742940411	591.934940269534	688.851233971190	626.015042334272	659.088956317053	743.499280731535	561.528839887474	574.165230682428	723.891620580244	474.163990260317	577.975856640280	820.638518806781	763.357943592329	377.444585263033	756.701958138110	634.555225024978	313.060716192591	858.479264048697	573.564018077301	372.779412309786	878.811776026464	506.193653278739	375.424114576835	863.079551031309	433.645398140360	365.831216047820	794.857878956178	305.194594639842	314.763328436135	876.373159382421	204.736000128472	375.026320216376	684.321424701072	390.457767454267	587.556197449964	602.698585286414	298.263366841986	653.773447764111	624.128485399789	198.916904559221	588.869447849134	467.608410569477	43.906857817924	563.879704590552	640.255257908035	95.999390688039	596.833853783448	551.612859756811	35.859303920732	636.946337107145	759.917679375308	40.880996136174	624.967400877159	779.494823415664	36.654360196321	410.851265765679	857.047552681213	35.447960426450	333.443577440886	935.174877636132	102.429134346577	359.484761971967	1066.450207368130	57.948190676752	338.805751663076	561.195422336413	1096.125769786235	235.716598689861	545.349107716600	836.538840280363	229.478675717531	879.322110706466	1116.157171349730	772.842803694714	1099.325614882878	1187.538857529398	674.708161853248	
